<svg width="150" height="150" viewBox="0 0 150 150" fill="none" xmlns="http://www.w3.org/2000/svg">
<circle cx="75" cy="75" r="75" fill="#3D4A57"/>
<path d="M80.625 69.375V30C85.957 30 91.0547 31.04 95.918 33.1201C100.781 35.2002 104.971 37.998 108.486 41.5137C112.002 45.0293 114.8 49.2188 116.88 54.082C118.96 58.9453 120 64.043 120 69.375H80.625ZM69.375 120C64.043 120 58.9453 118.96 54.082 116.88C49.2188 114.8 45.0293 112.002 41.5137 108.486C37.998 104.971 35.2002 100.781 33.1201 95.918C31.04 91.0547 30 85.957 30 80.625C30 75.293 31.04 70.1953 33.1201 65.332C35.2002 60.4688 37.998 56.2793 41.5137 52.7637C45.0293 49.248 49.2188 46.4502 54.082 44.3701C58.9453 42.29 64.043 41.25 69.375 41.25V80.625H108.75C108.75 85.957 107.71 91.0547 105.63 95.918C103.55 100.781 100.752 104.971 97.2363 108.486C93.7207 112.002 89.5312 114.8 84.668 116.88C79.8047 118.96 74.707 120 69.375 120Z" fill="white"/>

</svg>
