<svg width="150" height="150" viewBox="0 0 150 150" fill="none" xmlns="http://www.w3.org/2000/svg">
<circle cx="75" cy="75" r="75" fill="#3D4A57"/>
<g clip-path="url(#clip0_26_8)">
<rect width="90" height="90" transform="translate(30 24)" fill="#3D4A57"/>
<path d="M119.4 104.4L80.9999 27.6C78.5999 22.8 71.9999 22.8 69.5999 27.6L30.5999 104.4C28.1999 108.6 31.7999 114 36.5999 114H113.4C118.2 114 121.2 108.6 119.4 104.4ZM74.9999 102C70.1999 102 65.9999 97.8 65.9999 93C65.9999 88.2 69.5999 84 74.9999 84C80.3999 84 83.9999 88.2 83.9999 93C83.9999 98.4 79.7999 102 74.9999 102ZM80.9999 78H68.9999L65.9999 57C65.9999 55.2 67.1999 54 68.9999 54H80.9999C82.7999 54 83.9999 55.2 83.9999 57L80.9999 78Z" fill="white"/>
<path d="M68.9999 78H80.9999L83.9999 57C84.0356 56 83.4855 54 80.9999 54H68.9999C67.9999 54 65.9999 54.6 65.9999 57L68.9999 78Z" fill="#3D4A57"/>
</g>

<defs>
<clipPath id="clip0_26_8">
<rect width="90" height="90" fill="white" transform="translate(30 24)"/>
</clipPath>
</defs>
</svg>
