<svg width="150" height="150" viewBox="0 0 150 150" fill="none" xmlns="http://www.w3.org/2000/svg">
<circle cx="75" cy="75" r="75" fill="#3D4A57"/>
<path d="M75 57.3334C65.2392 57.3334 57.3334 65.2392 57.3334 75.0001C57.3334 84.7609 65.2392 92.6667 75 92.6667C84.7609 92.6667 92.6667 84.7609 92.6667 75.0001C92.6667 65.2392 84.7609 57.3334 75 57.3334ZM114.485 70.5834C113.485 61.627 109.468 53.2769 103.096 46.9043C96.7232 40.5318 88.3731 36.5155 79.4167 35.5151V26.4167H70.5834V35.5151C61.6269 36.5155 53.2768 40.5318 46.9043 46.9043C40.5317 53.2769 36.5154 61.627 35.515 70.5834H26.4167V79.4167H35.515C36.5154 88.3732 40.5317 96.7233 46.9043 103.096C53.2768 109.468 61.6269 113.485 70.5834 114.485V123.583H79.4167V114.485C88.3731 113.485 96.7232 109.468 103.096 103.096C109.468 96.7233 113.485 88.3732 114.485 79.4167H123.583V70.5834H114.485ZM75 105.917C57.9075 105.917 44.0834 92.0926 44.0834 75.0001C44.0834 57.9076 57.9075 44.0834 75 44.0834C92.0925 44.0834 105.917 57.9076 105.917 75.0001C105.917 92.0926 92.0925 105.917 75 105.917Z" fill="white"/>
</svg>
