<svg width="150" height="150" viewBox="0 0 150 150" fill="none" xmlns="http://www.w3.org/2000/svg">
<circle cx="75" cy="75" r="75" fill="#3D4A57"/>
<path d="M104.8 68.2L107.45 70.2L85.4 99.35L67.65 72.9L51.8 96.1L40.55 86.1L44 82.125L50.75 88.1L67.65 63.4L85.625 90.175L102.275 68.15C99.7524 67.937 97.2998 67.2112 95.0674 66.0172C92.8351 64.8231 90.87 63.186 89.2925 61.2059C87.715 59.2259 86.5583 56.9446 85.8933 54.5019C85.2283 52.0592 85.0689 49.5065 85.425 47H39C37.6739 47 36.4021 47.5268 35.4645 48.4645C34.5268 49.4021 34 50.6739 34 52V107C34 108.326 34.5268 109.598 35.4645 110.536C36.4021 111.473 37.6739 112 39 112H109C110.326 112 111.598 111.473 112.536 110.536C113.473 109.598 114 108.326 114 107V65.35C111.236 67.0902 108.064 68.0731 104.8 68.2Z" fill="white"/>
<path d="M104 62C110.904 62 116.5 56.4036 116.5 49.5C116.5 42.5964 110.904 37 104 37C97.0964 37 91.5 42.5964 91.5 49.5C91.5 56.4036 97.0964 62 104 62Z" fill="white"/>

</svg>
