<svg width="150" height="150" viewBox="0 0 150 150" fill="none" xmlns="http://www.w3.org/2000/svg">
<circle cx="75" cy="75" r="75" fill="#3D4A57"/>
<g clip-path="url(#clip0_26_12)">
<rect width="100" height="100" transform="translate(25 25)" fill="white"/>
<path d="M112.456 130.658L38.3333 128.99C34.8861 128.99 24.6612 130.319 22.2222 127.878C19.7832 125.437 17.2222 112.825 17.2222 109.375L19.4444 37.4999C19.4444 34.0494 21.4499 25.2169 23.8889 22.7755C26.3279 20.3341 34.0824 19.9949 37.5295 19.9949L112.456 17.7705C115.904 17.7705 123.672 21.4464 126.111 23.8878C128.55 26.3292 131.667 34.9771 131.667 38.4276V111.572C131.667 115.023 130.217 125.437 127.778 127.878C125.339 130.319 115.904 130.658 112.456 130.658ZM56.2613 96.8749C56.2613 96.0285 55.9523 95.2961 55.3344 94.6776C54.7165 94.0591 53.9848 93.7499 53.1393 93.7499H46.8954C46.0499 93.7499 45.3182 94.0591 44.7003 94.6776C44.0824 95.2961 43.7735 96.0285 43.7735 96.8749V109.375C43.7735 110.221 44.0824 110.954 44.7003 111.572C45.3182 112.191 46.0499 112.5 46.8954 112.5H53.1393C53.9848 112.5 54.7165 112.191 55.3344 111.572C55.9523 110.954 56.2613 110.221 56.2613 109.375V96.8749ZM81.2369 71.8749C81.2369 71.0285 80.9279 70.2961 80.31 69.6776C79.6922 69.0591 78.9604 68.7499 78.1149 68.7499H71.871C71.0255 68.7499 70.2938 69.0591 69.6759 69.6776C69.058 70.2961 68.7491 71.0285 68.7491 71.8749V109.375C68.7491 110.221 69.058 110.954 69.6759 111.572C70.2938 112.191 71.0255 112.5 71.871 112.5H78.1149C78.9604 112.5 79.6922 112.191 80.31 111.572C80.9279 110.954 81.2369 110.221 81.2369 109.375V71.8749ZM106.212 40.6249C106.212 39.7785 105.904 39.0461 105.286 38.4276C104.668 37.8091 103.936 37.4999 103.091 37.4999H96.8466C96.0011 37.4999 95.2694 37.8091 94.6515 38.4276C94.0336 39.0461 93.7247 39.7785 93.7247 40.6249V109.375C93.7247 110.221 94.0336 110.954 94.6515 111.572C95.2694 112.191 96.0011 112.5 96.8466 112.5H103.091C103.936 112.5 104.668 112.191 105.286 111.572C105.904 110.954 106.212 110.221 106.212 109.375V40.6249Z" fill="#3D4A57"/>
</g>
<defs>
<clipPath id="clip0_26_12">
<rect width="100" height="100" fill="white" transform="translate(25 25)"/>
</clipPath>
</defs>
</svg>
