<svg width="150" height="150" viewBox="0 0 150 150" fill="none" xmlns="http://www.w3.org/2000/svg">
<path d="M75 0C33.5786 0 0 33.5786 0 75C0 116.421 33.5786 150 75 150C116.421 150 150 116.421 150 75C150 33.5786 116.421 0 75 0ZM72.4549 27.7221H77.5452V42.7276H72.4549V27.7221ZM51.6357 32.2265L60.2417 44.5129L56.067 47.4426L47.461 35.1562L51.6357 32.2265ZM98.3643 32.2265L102.539 35.1562L93.933 47.4426L89.7582 44.5129L98.3643 32.2265ZM75 46.8293C87.4692 46.8293 97.5769 54.3979 97.5769 63.739L84.7504 102.585H65.2496L52.4231 63.739C52.4231 54.3977 62.5315 46.8293 75 46.8293ZM34.4512 51.3336L48.5504 56.4697L46.8018 61.258L32.7118 56.1219L34.4512 51.3336V51.3336ZM115.549 51.3336L117.288 56.1219L103.189 61.258L101.45 56.4697L115.549 51.3336ZM47.8729 73.2422L49.1912 78.1677L34.6985 82.0496L33.3801 77.1241L47.8729 73.2422ZM102.127 73.2422L116.62 77.1241L115.301 82.0496L100.809 78.1677L102.127 73.2422ZM64.9659 105.423H85.0342V112.17H64.9659V105.423V105.423ZM64.9659 115.53H85.0342V122.278H64.9659V115.53V115.53Z" fill="#3D4A57"/>
</svg>
