<svg width="150" height="150" viewBox="0 0 150 150" fill="none" xmlns="http://www.w3.org/2000/svg">
<circle cx="75" cy="75" r="75" fill="#3D4A57"/>
<path d="M43.125 46.125C43.125 42.7435 44.4683 39.5005 46.8594 37.1094C49.2505 34.7183 52.4935 33.375 55.875 33.375C59.2565 33.375 62.4995 34.7183 64.8906 37.1094C67.2817 39.5005 68.625 42.7435 68.625 46.125C68.625 49.5065 67.2817 52.7495 64.8906 55.1406C62.4995 57.5317 59.2565 58.875 55.875 58.875C52.4935 58.875 49.2505 57.5317 46.8594 55.1406C44.4683 52.7495 43.125 49.5065 43.125 46.125Z" fill="white"/>
<path d="M86.3411 56.223L86.6088 56.427C89.3137 58.432 92.7018 59.2857 96.0338 58.8018C99.3658 58.3179 102.371 56.5357 104.394 53.8441C106.417 51.1525 107.293 47.7701 106.831 44.435C106.369 41.0999 104.607 38.0829 101.928 36.0424C99.2502 34.0019 95.8737 33.1035 92.5356 33.5434C89.1975 33.9833 86.169 35.7257 84.1108 38.3903C82.0527 41.0549 81.1321 44.4255 81.5499 47.7664C81.9677 51.1073 83.6901 54.1473 86.3411 56.223Z" fill="white"/>
<path d="M64.009 65.5294C64.8097 64.0132 65.908 62.674 67.2382 61.5921C68.5684 60.5102 70.1032 59.7077 71.7507 59.2326C73.3982 58.7575 75.1246 58.6196 76.8266 58.8271C78.5287 59.0347 80.1714 59.5834 81.6565 60.4405C83.1415 61.2976 84.4385 62.4454 85.4697 63.8153C86.5009 65.1851 87.2453 66.749 87.6582 68.4132C88.0711 70.0773 88.144 71.8077 87.8727 73.5008C87.6014 75.1938 86.9914 76.8148 86.0792 78.2666C84.3243 81.0597 81.5552 83.0639 78.3536 83.8582C75.152 84.6525 71.7672 84.1751 68.9102 82.5263C66.0532 80.8775 63.9465 78.1856 63.0325 75.0161C62.1186 71.8466 62.4685 68.4462 64.009 65.5294Z" fill="white"/>
<path d="M39.9375 65.25H56.9587C56.2575 67.2454 55.875 69.3937 55.875 71.625C55.875 76.521 57.7174 80.9962 60.7455 84.375H59.0625C55.7758 84.3745 52.5692 85.3898 49.8818 87.2819C47.1943 89.174 45.1572 91.8504 44.0494 94.9447C41.9095 94.0851 39.9059 92.9191 38.1015 91.4831C33.3075 87.6262 30.375 81.927 30.375 74.8125C30.375 72.2764 31.3825 69.8441 33.1758 68.0508C34.9691 66.2575 37.4014 65.25 39.9375 65.25Z" fill="white"/>
<path d="M90.9376 84.375C97.8545 84.375 103.745 88.7801 105.944 94.9447C108.112 94.0586 110.12 92.9047 111.899 91.4831C116.693 87.6262 119.625 81.927 119.625 74.8125C119.625 72.2764 118.618 69.8441 116.824 68.0508C115.031 66.2575 112.599 65.25 110.063 65.25H93.0414C93.7426 67.2454 94.1251 69.3937 94.1251 71.625C94.131 76.3305 92.3962 80.8719 89.2546 84.375H90.9376Z" fill="white"/>
<path d="M99.7797 96.666C100.245 97.788 100.5 99.0248 100.5 100.313C100.5 107.427 97.5739 113.126 92.7735 116.983C88.0497 120.776 81.7129 122.625 75 122.625C68.2872 122.625 61.9504 120.776 57.2265 116.983C52.4325 113.126 49.5 107.427 49.5 100.313C49.4967 99.0558 49.7417 97.8108 50.2211 96.6491C50.7005 95.4875 51.4047 94.432 52.2933 93.5433C53.182 92.6547 54.2375 91.9505 55.3991 91.4711C56.5608 90.9917 57.8058 90.7467 59.0625 90.75H90.9375C92.8316 90.7496 94.6831 91.3116 96.2573 92.3649C97.8314 93.4181 99.0574 94.9151 99.7797 96.666Z" fill="white"/>

</svg>
